<svg xml:space="preserve" style="max-height: 500px" viewBox="0 175.104 516.096 159.744" y="0px" x="0px" xmlns:xlink="http://www.w3.org/1999/xlink" xmlns="http://www.w3.org/2000/svg" id="Layer_1" version="1.1" width="516.096" height="159.744">
<style type="text/css">
	.st0{fill:#A30046;}
	.st1{fill:#FFC425;}
</style>
<g id="XMLID_42_">
	<path d="M409.12,209.82c-6.18,0-14.18,2.67-14.18,11.79c0,7.58,7.3,9.12,9.54,9.68&#10;&#9;&#9;c1.96,0.42,3.93,0.7,5.75,0.84c2.67,0.42,6.18,0.84,6.18,3.65c0,2.53-3.09,4.07-6.6,4.07c-2.11,0-4.49-0.42-6.88-1.68&#10;&#9;&#9;c-1.68-0.98-2.53-1.82-3.37-2.81l-6.74,4.21c2.25,2.53,6.18,7.16,16.14,7.16c5.05,0,10.11-1.12,13.33-4.77&#10;&#9;&#9;c1.82-2.11,2.81-4.91,2.81-7.58c0-4.07-2.11-7.16-6.18-8.7c-1.96-0.7-7.02-1.68-10.81-2.11c-1.54-0.14-4.49-0.56-4.49-3.37&#10;&#9;&#9;c0-1.68,1.68-3.65,5.33-3.65c2.25,0,4.49,0.84,5.75,1.54c1.4,0.84,2.39,1.82,3.51,2.81l6.6-4.63&#10;&#9;&#9;C421.75,213.75,417.26,209.82,409.12,209.82L409.12,209.82z M266.11,210.67v6.04h7.58v-6.04H266.11z M12.21,210.67&#10;&#9;&#9;c-0.7,0-0.98,0.28-0.56,0.7c0,0,1.26,1.26,3.65,3.93c3.23,3.65,1.96,8.56,1.96,8.56L0,293.19h25.12l3.65-15.16h24.28l3.79,15.16&#10;&#9;&#9;h33.12c13.61,0,24.7-1.4,30.18-9.82c4.07,7.72,12.91,11.37,28.35,10.11c5.33-0.42,10.67-2.95,12.91-7.02l1.12,3.37&#10;&#9;&#9;c0.84,1.96,2.81,3.51,5.33,3.51h25.4c0.7,0,0.84-0.14,0.56-0.7c0,0-1.4-1.54-3.65-3.93c-2.81-2.95-2.67-6.18-2.67-6.18v-71.72&#10;&#9;&#9;h-27.09v57.4c-0.28,5.47-5.61,6.88-8.56,6.74c-4.21-0.14-6.6-2.53-6.6-6.6v-57.54h-26.39c0,0-11.09,0-18.67,0&#10;&#9;&#9;c-14.46,0-28.07,2.25-32.7,14.32l-2.67-10.67c-0.7-2.11-2.95-3.65-5.19-3.65L12.21,210.67L12.21,210.67z M224,210.67l-13.19,35.51&#10;&#9;&#9;h9.4l1.82-5.61h13.05l1.82,5.61h9.4l-13.05-35.51H224L224,210.67z M428.91,212.35v8.14h-3.79v4.77h3.79v12.63&#10;&#9;&#9;c0,2.53,0,4.35,1.12,5.89c1.68,2.39,4.63,2.53,7.3,2.53c1.4,0,2.39-0.14,4.07-0.42v-6.04L438.6,240c-2.11,0-2.11-1.4-1.96-2.95&#10;&#9;&#9;v-11.79h5.05v-4.77h-5.05v-8.14H428.91z M471.86,212.35v8.14h-3.93v4.77h3.79v12.63c0,2.53,0,4.35,1.12,5.89&#10;&#9;&#9;c1.68,2.39,4.63,2.53,7.3,2.53c1.4,0,2.39-0.14,4.07-0.42v-6.04L481.4,240c-2.11,0-2.11-1.4-1.96-2.95v-11.79h5.05v-4.77h-5.05&#10;&#9;&#9;v-8.14H471.86L471.86,212.35z M498.95,219.09c-10.39,0-13.47,8.14-13.47,14.46c0,8.56,5.47,13.61,13.19,13.61&#10;&#9;&#9;c4.21,0,7.58-1.54,9.82-3.65c1.4-1.26,2.25-2.53,3.23-3.93l-5.89-2.95c-0.98,1.82-2.39,4.63-6.6,4.63c-4.21,0-6.04-3.23-5.89-6.46&#10;&#9;&#9;H512c-0.14-2.95-0.28-8.14-3.65-11.79C505.12,219.23,500.49,219.09,498.95,219.09z M315.51,219.09&#10;&#9;&#9;c-8.84,0.28-13.33,6.32-13.33,13.89c0,9.68,6.74,13.89,14.04,13.89c10.25,0,14.04-7.3,14.04-13.89c0-4.77-2.39-13.19-13.05-13.89&#10;&#9;&#9;C316.77,219.09,316.21,219.09,315.51,219.09z M228.49,219.09l4.63,15.02h-8.98c0.84-2.67,2.11-6.88,2.95-9.54&#10;&#9;&#9;C227.51,222.74,228.07,220.91,228.49,219.09z M371.51,219.23c-3.09,0-6.18,0.42-8.56,2.25c-2.39,1.82-2.53,4.07-2.81,5.89h7.72&#10;&#9;&#9;c0.14-0.98,0.7-3.09,4.07-3.09c2.81,0,2.81,1.96,2.95,3.23v1.4c-3.23,0.56-8.28,1.54-10.39,2.39c-2.11,0.84-5.47,3.37-5.47,7.58&#10;&#9;&#9;c0,3.65,2.53,8,8.56,8c3.93,0,6.04-1.68,8-3.09v2.39h7.58c-0.56-0.84-0.7-1.26-0.7-4.07v-15.3&#10;&#9;&#9;C382.46,219.93,374.74,219.23,371.51,219.23L371.51,219.23z M455.44,219.23c-3.09,0-6.18,0.42-8.56,2.25&#10;&#9;&#9;c-2.39,1.82-2.67,4.07-2.81,5.89h7.72c0.28-0.98,0.7-3.09,4.07-3.09c2.81,0,2.81,1.96,2.95,3.23v1.4&#10;&#9;&#9;c-3.23,0.56-8.28,1.54-10.39,2.39c-2.11,0.84-5.47,3.37-5.47,7.58c0,3.65,2.53,8,8.56,8c3.93,0,6.04-1.68,8-3.09v2.39h7.58&#10;&#9;&#9;c-0.56-0.84-0.7-1.26-0.7-4.07v-15.3C466.39,219.93,458.67,219.23,455.44,219.23L455.44,219.23z M348.21,219.23&#10;&#9;&#9;c-1.82,0-3.51,0.42-4.77,0.98c-1.4,0.7-1.82,1.26-2.53,2.11v-2.25h-7.86v26.11h7.72V232c0-3.23,0-6.46,4.07-6.46&#10;&#9;&#9;c1.54,0,2.81,0.56,3.51,1.96c0.28,0.7,0.28,1.54,0.28,3.93v14.74h7.72v-17.96c0-4.07-0.7-6.46-3.51-7.86&#10;&#9;&#9;C351.58,219.51,349.75,219.23,348.21,219.23z M263.44,219.65c-4.07,0.42-5.89,1.54-7.58,2.95v-2.81h-7.58v26.39H256v-14.74&#10;&#9;&#9;c0-3.37,1.12-3.93,4.77-4.49l2.53-0.42v-6.88H263.44z M266.11,219.93v26.25h7.58v-26.25H266.11z M278.46,219.93v5.89h12.63&#10;&#9;&#9;l-14.18,14.46v5.75h24V240h-14.04l13.89-14.32v-5.89h-22.32V219.93z M498.95,224.56c1.4,0,2.81,0.56,3.79,1.4&#10;&#9;&#9;c1.12,1.12,1.26,2.67,1.4,3.65h-10.67c0.28-1.12,0.56-2.25,1.54-3.51C495.72,225.54,497.12,224.56,498.95,224.56L498.95,224.56z&#10;&#9;&#9; M316.91,225.26c1.12,0,2.39,0.28,3.65,1.54c1.4,1.4,2.11,3.65,2.11,6.6c0,4.07-2.11,7.44-6.18,7.44c-4.35,0-6.32-3.65-6.32-7.86&#10;&#9;&#9;c0-1.82,0.42-3.65,1.26-5.05c1.12-1.68,2.39-2.39,4.63-2.53C316.21,225.26,316.49,225.26,316.91,225.26z M40.84,229.05l8.42,33.82&#10;&#9;&#9;H32.42L40.84,229.05z M374.88,233.54c0,2.67-0.14,5.19-2.67,6.74c-0.84,0.56-1.68,0.84-2.67,0.84c-1.82,0-2.95-1.4-2.95-2.67&#10;&#9;&#9;c0-1.96,1.96-2.81,3.37-3.23L374.88,233.54z M458.81,233.54c0,2.67-0.14,5.19-2.67,6.74c-0.84,0.56-1.68,0.84-2.67,0.84&#10;&#9;&#9;c-1.82,0-2.95-1.4-2.95-2.67c0-1.96,1.96-2.81,3.37-3.23L458.81,233.54z M273.68,257.68v6.04h7.58v-6.04H273.68z M380.63,257.68&#10;&#9;&#9;v6.04h7.58v-6.04H380.63z M212.07,257.68v19.79c0,4.77,0,11.09,6.74,14.6c2.39,1.26,5.61,1.96,8.28,1.96&#10;&#9;&#9;c1.54,0,9.4-0.28,13.19-6.46c1.96-3.23,1.96-6.6,2.11-10.11v-19.79h-8.84v22.04c0,2.81,0,6.88-6.04,6.88&#10;&#9;&#9;c-2.25,0-4.63-0.56-5.75-2.39c-0.56-1.12-0.7-2.67-0.7-4.35v-22.04h-8.98V257.68z M394.81,259.37v8.14h-3.79v4.77h3.79v12.63&#10;&#9;&#9;c0,2.53,0,4.35,1.12,5.89c1.68,2.39,4.63,2.53,7.3,2.53c1.4,0,2.39-0.14,4.07-0.42v-6.04l-2.81,0.14c-2.11,0-2.11-1.4-1.96-2.95&#10;&#9;&#9;v-11.79h5.05v-4.77h-5.05v-8.14L394.81,259.37z M321.96,266.11c-10.39,0-13.47,8.14-13.47,14.46c0,8.56,5.47,13.61,13.19,13.61&#10;&#9;&#9;c4.21,0,7.58-1.54,9.96-3.65c1.4-1.26,2.25-2.53,3.09-3.93l-5.89-2.95c-0.98,1.82-2.39,4.63-6.6,4.63c-4.21,0-6.04-3.23-6.04-6.6&#10;&#9;&#9;h18.67c-0.14-2.95-0.28-8.14-3.65-11.79C328,266.25,323.51,266.11,321.96,266.11z M366.04,266.11c-7.3,0-11.09,4.49-11.09,8.84&#10;&#9;&#9;c0,1.96,0.84,3.79,1.96,4.91c1.12,1.12,2.81,1.82,4.35,2.25c1.12,0.28,2.39,0.56,3.51,0.84c1.54,0.28,3.37,0.42,4.49,0.98&#10;&#9;&#9;c0.42,0.28,0.98,0.56,0.98,1.54c0,1.96-2.81,2.53-4.63,2.53c-2.95,0-5.47-1.54-7.58-3.65l-4.91,4.35&#10;&#9;&#9;c1.68,1.54,5.47,5.05,12.63,5.05c6.18,0,12.35-2.95,12.35-9.12c0-6.18-6.18-7.58-11.37-8.56c-2.53-0.42-4.21-0.7-4.21-2.25&#10;&#9;&#9;c0-0.7,0.7-1.96,3.65-1.96c1.82,0,4.07,0.7,6.6,2.67l4.77-4.35C375.86,268.77,372.21,266.11,366.04,266.11L366.04,266.11z&#10;&#9;&#9; M261.47,266.39c-1.82,0-3.51,0.42-4.77,0.98c-1.4,0.7-1.82,1.26-2.67,2.11v-2.25h-7.72v26.11h7.72v-14.18c0-3.23,0-6.6,4.07-6.6&#10;&#9;&#9;c1.54,0,2.81,0.56,3.51,1.96c0.28,0.7,0.42,1.54,0.42,3.93v14.74h7.72v-17.96c0-4.07-0.7-6.46-3.51-7.86&#10;&#9;&#9;C264.84,266.67,263.02,266.39,261.47,266.39z M353.26,266.67c-4.07,0.42-5.89,1.54-7.58,2.95v-2.81h-7.58v26.25h7.72v-14.6&#10;&#9;&#9;c0-3.37,1.12-3.93,4.77-4.49l2.53-0.42v-6.88H353.26z M273.68,266.95v26.25h7.58v-26.25H273.68z M380.63,266.95v26.25h7.58v-26.25&#10;&#9;&#9;H380.63z M283.51,266.95l8.42,26.25h8.14l8.42-26.25h-7.86l-1.54,6.46c-1.54,6.18-1.68,6.88-2.81,12.63&#10;&#9;&#9;c-0.84-5.05-1.4-7.44-4.63-19.09H283.51z M409.4,266.95l7.86,25.26c0.14,0.56,0.28,1.26,0.28,1.82c0,1.82-1.96,1.82-3.23,1.96&#10;&#9;&#9;h-2.67v6.18h5.61c1.96,0,3.79-0.14,5.61-2.11c1.26-1.4,1.82-3.09,2.53-4.77l9.26-28.35h-8.28l-4.35,18.81l-4.35-18.81L409.4,266.95&#10;&#9;&#9;L409.4,266.95z M321.82,271.72c1.4,0,2.81,0.56,3.79,1.4c1.12,1.12,1.26,2.67,1.4,3.65h-10.67c0.28-1.12,0.56-2.25,1.54-3.51&#10;&#9;&#9;C318.74,272.56,320,271.72,321.82,271.72z" class="st0" id="XMLID_77_"/>
	<path d="M119.44,216.28c-0.14,0-0.28,0.14-0.42,0.14l-10.39,12.77c0,0-5.19-2.25-10.11-2.25&#10;&#9;&#9;c-4.63,0-8,0.84-9.82,2.53c-1.12,1.12-1.54,2.39-1.54,4.07c0,2.25,1.26,4.07,3.93,5.75c2.39,1.54,5.75,2.81,9.26,4.07&#10;&#9;&#9;c4.63,1.82,9.82,3.79,14.18,6.74c8.28,5.61,8.84,12.77,8.84,12.77l15.86,3.65c0.56,0.14,0.84-0.7,0.28-0.98l-15.58-6.74&#10;&#9;&#9;c-0.14,0-0.14-0.28,0-0.28l17.26,1.12c0.56,0,0.7-0.84,0.14-0.98l-16.56-4.21c-0.14,0-0.14-0.28,0-0.28l17.26-1.54&#10;&#9;&#9;c0.56,0,0.56-0.98,0-0.98l-17.26-1.54c-0.14,0-0.14-0.28,0-0.28l16.56-4.21c0.56-0.14,0.42-0.98-0.14-0.98l-17.26,1.12&#10;&#9;&#9;c-0.14,0-0.14-0.14,0-0.28l15.58-6.74c0.56-0.28,0.28-1.12-0.28-0.98l-16.84,3.79c-0.14,0-0.28-0.14-0.14-0.28l13.89-9.12&#10;&#9;&#9;c0.56-0.28,0.14-1.12-0.42-0.84l-15.86,6.32c-0.14,0-0.28-0.14-0.14-0.28l11.93-11.09c0.42-0.42-0.14-1.12-0.56-0.84l-14.32,8.7&#10;&#9;&#9;c-0.14,0.14-0.28-0.14-0.14-0.14l9.68-12.77c0.42-0.56-0.28-1.12-0.7-0.7l-12.49,10.95c-0.14,0.14-0.28,0-0.14-0.14l7.02-14.18&#10;&#9;&#9;C120.14,216.56,119.72,216.14,119.44,216.28z M61.75,225.4c-0.42,0.14-0.56,0.56-0.28,0.84l4.77,4.35c0.14-0.7,0.28-1.68,0.42-2.39&#10;&#9;&#9;l-4.49-2.81C62.04,225.4,61.89,225.4,61.75,225.4z M57.12,231.3c-0.28,0.14-0.42,0.7-0.14,0.84l9.12,5.89&#10;&#9;&#9;c-0.14-0.98-0.14-2.39-0.14-3.37l-8.56-3.37C57.4,231.16,57.26,231.16,57.12,231.3z M54.04,237.61c-0.56-0.14-0.84,0.7-0.28,0.98&#10;&#9;&#9;l14.46,6.32c-0.7-1.26-1.26-2.95-1.54-4.35L54.04,237.61z M51.93,244.63c-0.56,0-0.7,0.84-0.14,0.98l16.7,4.21&#10;&#9;&#9;c0.14,0,0.14,0.28,0,0.28l-17.26,1.54c-0.56,0-0.56,0.98,0,0.98l17.26,1.54c0.14,0,0.14,0.28,0,0.28l-16.56,4.21&#10;&#9;&#9;c-0.56,0.14-0.42,0.98,0.14,0.98l17.26-1.12c0.14,0,0.14,0.14,0,0.28l-15.58,6.74c-0.56,0.28-0.28,1.12,0.28,0.98l16.84-3.79&#10;&#9;&#9;c0.14,0,0.28,0.14,0.14,0.28l-13.89,9.12c-0.56,0.28-0.14,1.12,0.42,0.84l15.86-6.32c0.14,0,0.28,0.14,0.14,0.28l-11.93,11.09&#10;&#9;&#9;c-0.42,0.42,0.14,1.12,0.56,0.84l14.32-8.7c0.14-0.14,0.28,0.14,0.14,0.28l-9.54,12.77c-0.42,0.56,0.28,1.12,0.84,0.7l12.35-10.81&#10;&#9;&#9;c0.14-0.14,0.28,0,0.28,0.14l-7.02,14.04c-0.28,0.56,0.56,1.12,0.84,0.56l10.11-12.63c0,0,2.95,1.4,5.61,1.68&#10;&#9;&#9;c4.91,0.42,9.26-0.56,11.79-2.81c1.26-1.12,1.82-2.53,1.82-4.07c0-5.89-6.6-8.14-14.18-10.81c-7.86-2.67-16.84-5.75-21.05-13.61&#10;&#9;&#9;L51.93,244.63z M123.65,263.86c0.28,1.54,0.28,4.35,0.28,4.35l12.07,4.77c0.56,0.28,0.98-0.56,0.42-0.84L123.65,263.86z&#10;&#9;&#9; M123.79,270.6c0,1.26-0.42,3.51-0.42,3.51l7.86,4.77c0.56,0.28,1.12-0.42,0.56-0.84L123.79,270.6z M122.53,278.04&#10;&#9;&#9;c-0.28,0.98-0.84,2.39-0.84,2.39l3.93,3.37c0.42,0.42,1.12-0.28,0.7-0.7L122.53,278.04z" class="st1" id="XMLID_103_"/>
</g>
</svg>